<?xml version="1.0" encoding="UTF-8"?>
<svg version="1.1" xmlns="http://www.w3.org/2000/svg" width="552" height="440">
<path d="M0 0 C19.0575791 9.27167148 33.39184835 27.85378692 45 45 C44.34 45.99 43.68 46.98 43 48 C38.54896521 47.581969 36.13868353 44.50101842 33.203125 41.4609375 C32.65066101 40.90185699 32.09819702 40.34277649 31.5289917 39.76675415 C29.7620823 37.97646569 28.00560265 36.17637166 26.25 34.375 C23.94655325 32.02484447 21.63877193 29.67901333 19.328125 27.3359375 C18.49516907 26.490028 18.49516907 26.490028 17.64538574 25.62702942 C14.10529282 22.05313652 10.46889729 18.65693716 6.63183594 15.40039062 C4.30354739 13.40232613 2.15164813 11.24776764 0 9.0625 C-0.763125 8.29035156 -1.52625 7.51820312 -2.3125 6.72265625 C-2.869375 6.15417969 -3.42625 5.58570312 -4 5 C-10.67745633 10.48573986 -16.71674891 16.58275298 -22.81030273 22.69677734 C-23.99337124 23.8801283 -25.17666073 25.06325836 -26.3601532 26.2461853 C-29.55609409 29.44184048 -32.74895251 32.64055918 -35.94124866 35.83985472 C-39.28399024 39.18886736 -42.62958297 42.53502933 -45.97486877 45.88150024 C-52.30193661 52.21167035 -58.626452 58.54438422 -64.95004469 64.87802565 C-72.15244063 72.09161706 -79.35769214 79.30235333 -86.56317985 86.51285625 C-101.37862323 101.33873901 -116.19049339 116.16818718 -131 131 C-129.62101299 133.863149 -128.30978861 135.93928723 -126.05419922 138.1887207 C-125.4595285 138.78646805 -124.86485779 139.38421539 -124.25216675 140.00007629 C-123.28816452 140.95330025 -123.28816452 140.95330025 -122.3046875 141.92578125 C-121.63841339 142.59159714 -120.97213928 143.25741302 -120.28567505 143.94340515 C-118.87412939 145.35193182 -117.46015619 146.75802933 -116.04394531 148.16186523 C-113.89858764 150.28911149 -111.76119566 152.42410443 -109.625 154.56054688 C-108.24786382 155.93276149 -106.8702736 157.30452063 -105.4921875 158.67578125 C-104.86166473 159.30519119 -104.23114197 159.93460114 -103.58151245 160.58308411 C-99.77580807 164.34921796 -95.86022119 167.93633785 -91.79788208 171.42449951 C-89.07650918 173.80926344 -86.53417136 176.35692832 -84 178.9375 C-83.51144531 179.43056641 -83.02289063 179.92363281 -82.51953125 180.43164062 C-81.34396475 181.61873229 -80.17161174 182.80900498 -79 184 C-75.87296343 182.6113233 -73.74952824 180.99890552 -71.33674622 178.58398438 C-70.62590378 177.87733643 -69.91506134 177.17068848 -69.18267822 176.44262695 C-68.41316833 175.66749756 -67.64365845 174.89236816 -66.85083008 174.09375 C-66.03255234 173.27737061 -65.2142746 172.46099121 -64.37120056 171.61987305 C-61.66573232 168.91811184 -58.96753547 166.20921331 -56.26953125 163.5 C-54.39470653 161.62398346 -52.51954071 159.74831367 -50.64396667 157.87304688 C-46.71405961 153.9422039 -42.78804168 150.00751046 -38.86450195 146.0703125 C-34.32576482 141.51583425 -29.78180645 136.9666195 -25.23482591 132.42037201 C-20.86158129 128.04773726 -16.4911988 123.67225417 -12.12241173 119.29516602 C-10.26219661 117.43176061 -8.40136804 115.56896741 -6.53992653 113.70678711 C-3.94441543 111.10911728 -1.35221881 108.50818693 1.23901367 105.90625 C2.40238754 104.74355591 2.40238754 104.74355591 3.58926392 103.55737305 C4.29164688 102.8507251 4.99402985 102.14407715 5.71769714 101.41601562 C6.33102496 100.80101196 6.94435278 100.1860083 7.57626629 99.55236816 C9.09489704 98.03934476 9.09489704 98.03934476 10 96 C9.4225 95.71125 8.845 95.4225 8.25 95.125 C6.16666667 94.08333333 4.08333333 93.04166667 2 92 C1.19011627 92.81432495 0.38023254 93.6286499 -0.45419312 94.46765137 C-8.07132336 102.12524989 -15.69367215 109.77761905 -23.32121849 117.42484283 C-27.24284627 121.35692689 -31.16258425 125.29085764 -35.078125 129.22900391 C-38.85387177 133.02641338 -42.63442254 136.81897726 -46.41841507 140.60816956 C-47.86431215 142.05777424 -49.30844207 143.50914369 -50.7508049 144.96226501 C-52.76466416 146.99055177 -54.78460321 149.01258482 -56.80615234 151.03320312 C-57.4067598 151.64100113 -58.00736725 152.24879913 -58.62617493 152.87501526 C-62.77189568 157 -62.77189568 157 -65 157 C-65.37342705 146.99457884 -65.6563292 136.99085563 -65.82899475 126.97984409 C-65.91194449 122.32900215 -66.0240673 117.68297936 -66.20703125 113.03491211 C-67.51780791 78.84226166 -67.51780791 78.84226166 -59.59545898 69.54576111 C-56.92450111 66.97499437 -54.16117669 64.7237367 -51.13037109 62.59190369 C-47.36689664 59.77967587 -44.24041381 56.32270892 -41 52.9375 C-39.83726435 51.77599936 -38.67096195 50.6180506 -37.5 49.46484375 C-36.2625 48.24474609 -36.2625 48.24474609 -35 47 C-31.34535014 48.53392788 -29.05606 50.7262778 -26.296875 53.54296875 C-25.39839844 54.45240234 -24.49992187 55.36183594 -23.57421875 56.29882812 C-22.63243069 57.26134531 -21.69102645 58.22423819 -20.75 59.1875 C-18.91393683 61.05842513 -17.07543405 62.92695954 -15.234375 64.79296875 C-14.42194336 65.6233667 -13.60951172 66.45376465 -12.77246094 67.30932617 C-10.71678127 69.30436365 -8.66172751 71.16263094 -6.48730469 73.01708984 C-0.34994507 78.34185069 5.30198505 84.17883497 11.03125 89.93359375 C12.27513013 91.17934244 13.51923381 92.42486795 14.7635498 93.67018127 C18.01419015 96.92461236 21.26181428 100.18203681 24.50878906 103.44012451 C27.83214452 106.77376868 31.1583858 110.10453077 34.484375 113.43554688 C40.99238809 119.95423646 47.49721383 126.47609653 54 133 C48.79485876 144.40460034 38.68399367 154.50305842 30.375 163.75 C29.81558842 164.37290421 29.25617683 164.99580841 28.67981339 165.6375885 C13.08249012 182.76737745 -1.20676724 192.63591974 -24.76676941 193.89563751 C-31.12681253 194.1291805 -37.45513824 193.99925916 -43.8125 193.75 C-45.15517315 193.70370705 -45.15517315 193.70370705 -46.52497101 193.65647888 C-52.5581355 193.43406263 -58.56689288 193.06160024 -64.58203125 192.546875 C-65.36428762 192.48280457 -66.146544 192.41873413 -66.95250511 192.35272217 C-74.84813349 191.64244728 -81.41252543 190.99979871 -87.11186218 184.96383667 C-89.2978545 182.69020397 -91.64298983 181.00506777 -94.22265625 179.19213867 C-115.57128739 163.76630552 -135.82850734 146.17215175 -140.59735107 119.11353493 C-144.99748391 90.22437434 -142.59329216 59.0681246 -125.26296997 34.73080444 C-97.02661212 -2.92967168 -44.34726958 -17.7073394 0 0 Z " fill="#39B752" transform="translate(426,78)"/>
<path d="M0 0 C0 36.63 0 73.26 0 111 C14.76724443 96.19313871 14.76724443 96.19313871 29.52905273 81.38085938 C31.37203495 79.53495842 33.21520237 77.68924235 35.05859375 75.84375 C35.53998306 75.35974731 36.02137238 74.87574463 36.51734924 74.3770752 C37.92778751 72.95936097 39.34162784 71.54503382 40.75561523 70.13085938 C41.55281479 69.33143921 42.35001434 68.53201904 43.17137146 67.70837402 C45 66 45 66 46 66 C54.31880868 136.56759474 54.31880868 136.56759474 38.69841003 157.13899231 C33.86803717 163.06882017 28.51941065 168.35871767 22.8125 173.4375 C22.26065411 173.93189198 21.70880821 174.42628395 21.14023972 174.9356575 C1.94273926 192 1.94273926 192 -6 192 C-6.33 155.7 -6.66 119.4 -7 82 C-14.02410156 89.940625 -21.04820312 97.88125 -28.28515625 106.0625 C-32.87204559 111.10915225 -37.4629704 116.14446257 -42.11669922 121.12841797 C-43.00080935 122.07547942 -43.00080935 122.07547942 -43.90278029 123.04167342 C-48.27031238 127.71256428 -52.66058895 132.36151327 -57.0625 137 C-57.68252931 137.65433927 -58.30255861 138.30867853 -58.94137669 138.98284626 C-114.84342771 197.89438994 -114.84342771 197.89438994 -147.53889465 199.7041626 C-152.86527203 199.82079352 -158.08390573 199.46520953 -163.375 198.875 C-164.22550556 198.78083801 -165.07601112 198.68667603 -165.95228958 198.58966064 C-176.26226105 197.35830532 -186.12483103 195.23586852 -196 192 C-191.64766415 186.80006236 -187.08057776 181.93009013 -182.2888031 177.13490295 C-181.53174719 176.37346479 -180.77469129 175.61202663 -179.99469429 174.82751459 C-177.47075333 172.29027521 -174.9432958 169.75656977 -172.41577148 167.22290039 C-170.60018537 165.39940695 -168.78478064 163.57573289 -166.96954346 161.75189209 C-161.5368694 156.29481315 -156.09934998 150.84257521 -150.66093239 145.39122096 C-149.12466612 143.85123726 -147.58852768 142.31112616 -146.05243421 140.77097011 C-136.50536481 131.1986841 -126.95670856 121.62798416 -117.40325832 112.06206608 C-115.19598405 109.8518624 -112.98872595 107.64164257 -110.78149414 105.43139648 C-110.23293497 104.88209126 -109.6843758 104.33278604 -109.11919362 103.76683521 C-100.21350524 94.84846593 -91.31816069 85.91985194 -82.42695045 76.98705096 C-73.29312416 67.81084996 -64.14993943 58.64405831 -54.99751717 49.48640436 C-49.86083679 44.34630736 -44.72841947 39.20210298 -39.60650444 34.04728889 C-34.79563118 29.20556319 -29.97228667 24.37662833 -25.14004517 19.55621338 C-23.3655481 17.78193815 -21.59535353 16.00334826 -19.82972908 14.22024345 C-17.42589052 11.79389932 -15.00728856 9.38332209 -12.58421326 6.97621155 C-11.88304475 6.26116095 -11.18187624 5.54611035 -10.4594602 4.80939156 C-9.80877697 4.16928027 -9.15809374 3.52916898 -8.48769283 2.86966038 C-7.93085778 2.3114688 -7.37402273 1.75327722 -6.80031389 1.17817074 C-5 0 -5 0 0 0 Z " fill="#3E4298" transform="translate(234,75)"/>
<path d="M0 0 C19.0575791 9.27167148 33.39184835 27.85378692 45 45 C44.34 45.99 43.68 46.98 43 48 C38.54896521 47.581969 36.13868353 44.50101842 33.203125 41.4609375 C32.65066101 40.90185699 32.09819702 40.34277649 31.5289917 39.76675415 C29.7620823 37.97646569 28.00560265 36.17637166 26.25 34.375 C23.94655325 32.02484447 21.63877193 29.67901333 19.328125 27.3359375 C18.49516907 26.490028 18.49516907 26.490028 17.64538574 25.62702942 C14.10529282 22.05313652 10.46889729 18.65693716 6.63183594 15.40039062 C4.30354739 13.40232613 2.15164813 11.24776764 0 9.0625 C-0.763125 8.29035156 -1.52625 7.51820312 -2.3125 6.72265625 C-2.869375 6.15417969 -3.42625 5.58570312 -4 5 C-10.73994925 10.52851094 -16.80912566 16.68970092 -22.94628906 22.86450195 C-24.14417719 24.06595095 -25.34230378 25.26716223 -26.54064941 26.46815491 C-29.10926416 29.04329276 -31.67636128 31.61993049 -34.2423172 34.19771767 C-38.29830534 38.27206047 -42.35869253 42.34200004 -46.41986084 46.41117859 C-57.96336038 57.97878704 -69.50088267 69.55234657 -81.03417969 81.13012695 C-87.41258507 87.53305578 -93.79455986 93.93240518 -100.18040633 100.32791299 C-104.22047293 104.37452916 -108.25598758 108.42561452 -112.28821611 112.48004019 C-114.79156177 114.99508872 -117.29905227 117.50597209 -119.80775452 120.0156765 C-120.97253165 121.18260656 -122.13557994 122.35126513 -123.29679108 123.52174377 C-124.87821654 125.1153039 -126.46563995 126.70263541 -128.05474854 128.28852844 C-128.94256138 129.17948369 -129.83037422 130.07043894 -130.74509048 130.98839283 C-133 133 -133 133 -136 134 C-145.71010342 62.55200379 -145.71010342 62.55200379 -125.42997932 34.70105553 C-96.73243837 -2.67948358 -44.59113885 -17.80471351 0 0 Z " fill="#318C6F" transform="translate(426,78)"/>
<path d="M0 0 C9 0 9 0 11.25585938 1.98095703 C11.77986328 2.89731934 12.30386719 3.81368164 12.84375 4.7578125 C13.45089844 5.77746094 14.05804688 6.79710937 14.68359375 7.84765625 C15.28300781 8.92917969 15.88242187 10.01070313 16.5 11.125 C17.71745583 13.21169311 18.93622007 15.29762335 20.15625 17.3828125 C22.05890625 20.65832031 22.05890625 20.65832031 24 24 C26.97 28.62 29.94 33.24 33 38 C33.33 25.46 33.66 12.92 34 0 C36.31 0 38.62 0 41 0 C41 16.5 41 33 41 50 C38.03 50 35.06 50 32 50 C29.81794604 47.65901039 28.72159996 46.07960284 27.3125 43.3125 C26.49287562 41.85807839 25.66837019 40.40640017 24.83984375 38.95703125 C24.39753418 38.1676416 23.95522461 37.37825195 23.49951172 36.56494141 C20.67633661 31.73585028 17.50387012 27.13430073 14.375 22.5 C12.27125 19.365 10.1675 16.23 8 13 C7.67 25.21 7.34 37.42 7 50 C4.69 50 2.38 50 0 50 C0 33.5 0 17 0 0 Z " fill="#2B2B2B" transform="translate(396,313)"/>
<path d="M0 0 C8 0 8 0 9.890625 1.51953125 C10.33921875 2.27621094 10.7878125 3.03289062 11.25 3.8125 C11.81074219 4.71484375 12.37148437 5.6171875 12.94921875 6.546875 C13.26294434 7.07861328 13.57666992 7.61035156 13.89990234 8.15820312 C15.69552309 11.16445321 17.59365366 14.10536387 19.47363281 17.05932617 C21.44184903 20.16014376 23.38674352 23.27529803 25.32836914 26.39282227 C27.83160374 30.29702006 30.42742608 34.14113912 33 38 C33.33 25.46 33.66 12.92 34 0 C35.98 0 37.96 0 40 0 C40 16.5 40 33 40 50 C32 50 32 50 30.07299805 48.43383789 C29.64027588 47.70414795 29.20755371 46.97445801 28.76171875 46.22265625 C28.25672852 45.40651855 27.75173828 44.59038086 27.23144531 43.74951172 C26.72194336 42.86279785 26.21244141 41.97608398 25.6875 41.0625 C24.5720151 39.23282868 23.45612204 37.40340614 22.33984375 35.57421875 C21.7866748 34.64528809 21.23350586 33.71635742 20.66357422 32.75927734 C18.13244115 28.56102874 15.44003371 24.47245864 12.75 20.375 C8.1713101 13.3426202 8.1713101 13.3426202 7 11 C6.67 23.87 6.34 36.74 6 50 C4.02 50 2.04 50 0 50 C0 33.5 0 17 0 0 Z " fill="#171717" transform="translate(84,313)"/>
<path d="M0 0 C-0.66 1.65 -1.32 3.3 -2 5 C-3.03447266 4.76603516 -3.03447266 4.76603516 -4.08984375 4.52734375 C-12.28429569 2.83000185 -20.15974242 1.8553427 -27.4921875 6.6640625 C-31.41313086 10.13805895 -32.75796959 14.00137778 -33.37890625 19.12890625 C-33.61458684 25.68994975 -33.48468433 31.85840416 -29 37 C-23.83488584 41.09244936 -18.39881795 41.70076821 -12 41 C-9.525 40.505 -9.525 40.505 -7 40 C-7 35.71 -7 31.42 -7 27 C-10.63 27 -14.26 27 -18 27 C-18 25.02 -18 23.04 -18 21 C-12.06 21 -6.12 21 0 21 C0 28.59 0 36.18 0 44 C-10.06185328 48.18154942 -18.64366191 49.91928525 -29.06640625 45.90625 C-34.82023762 43.20950479 -37.25037391 39.49925217 -40 34 C-42.64807745 25.89793523 -41.98694751 15.84943737 -38.3828125 8.1875 C-34.41095713 1.90433897 -28.96236303 -1.83573754 -21.78515625 -3.6328125 C-14.27379645 -4.62308995 -6.44130288 -4.23285618 0 0 Z " fill="#262626" transform="translate(329,316)"/>
<path d="M0 0 C5.11083539 -0.63143373 5.11083539 -0.63143373 8 0 C10.24076942 2.09043266 11.45931056 4.58861219 12.8125 7.3125 C13.54453307 8.68554276 14.28009975 10.05670861 15.01953125 11.42578125 C15.32995361 12.03848877 15.64037598 12.65119629 15.96020508 13.2824707 C17.09487195 15.15670913 18.39867276 16.51457511 20 18 C20.29132813 17.45472656 20.58265625 16.90945313 20.8828125 16.34765625 C22.22418056 13.8800452 23.610887 11.44102706 25 9 C25.45761719 8.14148438 25.91523438 7.28296875 26.38671875 6.3984375 C27.78095681 3.99194441 29.0293498 1.96609904 31 0 C34.01056272 -0.783944 35.85752871 -0.48762486 39 0 C37.04758764 5.88061927 33.32626141 10.75215741 29.90039062 15.84960938 C29.41634766 16.58115234 28.93230469 17.31269531 28.43359375 18.06640625 C27.99072021 18.72584229 27.54784668 19.38527832 27.09155273 20.06469727 C25.89966868 22.17788556 25.19032881 23.57116431 25 26 C26.15444883 28.55216552 26.15444883 28.55216552 27.96484375 31.1328125 C28.59970703 32.10347656 29.23457031 33.07414062 29.88867188 34.07421875 C30.56478516 35.08097656 31.24089844 36.08773437 31.9375 37.125 C33.26286715 39.12512262 34.58467661 41.1276088 35.90234375 43.1328125 C36.49523193 44.01855957 37.08812012 44.90430664 37.69897461 45.81689453 C39 48 39 48 39 50 C34.03038488 50.82106685 34.03038488 50.82106685 31 50 C28.20458358 47.21070047 26.41400875 43.93252079 24.5 40.5 C23.96375 39.59378906 23.4275 38.68757813 22.875 37.75390625 C21.55618116 35.51662429 20.26678876 33.26701876 19 31 C18.67837891 31.57556641 18.35675781 32.15113281 18.02539062 32.74414062 C16.54734717 35.34811162 15.02483574 37.92317422 13.5 40.5 C12.74203125 41.85931641 12.74203125 41.85931641 11.96875 43.24609375 C8.08270269 49.7066474 8.08270269 49.7066474 4.80859375 50.59375 C2.59375 50.59375 2.59375 50.59375 -1 50 C0.29838741 46.42117216 1.84584266 43.5857515 4.109375 40.53125 C4.69847656 39.71269531 5.28757813 38.89414062 5.89453125 38.05078125 C7.13693941 36.34279698 8.3896769 34.64228128 9.65234375 32.94921875 C10.23628906 32.13066406 10.82023438 31.31210937 11.421875 30.46875 C11.96424805 29.73076172 12.50662109 28.99277344 13.06542969 28.23242188 C14.2696392 25.99319186 14.2696392 25.99319186 13.33740234 23.5065918 C12.03777902 21.07080634 10.684624 18.74032926 9.1796875 16.42578125 C8.37724609 15.17764648 8.37724609 15.17764648 7.55859375 13.90429688 C6.42852618 12.16462209 5.29831594 10.42503998 4.16796875 8.68554688 C3.63558594 7.85732422 3.10320312 7.02910156 2.5546875 6.17578125 C1.81968018 5.04523315 1.81968018 5.04523315 1.06982422 3.8918457 C0 2 0 2 0 0 Z " fill="#292929" transform="translate(189,313)"/>
<path d="M0 0 C8.58 0 17.16 0 26 0 C26 1.98 26 3.96 26 6 C19.73 6 13.46 6 7 6 C7 11.28 7 16.56 7 22 C12.61 22 18.22 22 24 22 C24 23.98 24 25.96 24 28 C18.39 28 12.78 28 7 28 C7 33.28 7 38.56 7 44 C13.6 44 20.2 44 27 44 C27 45.98 27 47.96 27 50 C18.09 50 9.18 50 0 50 C0 33.5 0 17 0 0 Z " fill="#252525" transform="translate(147,313)"/>
<path d="M0 0 C8.58 0 17.16 0 26 0 C26 1.98 26 3.96 26 6 C19.4 6 12.8 6 6 6 C6 11.28 6 16.56 6 22 C11.94 22 17.88 22 24 22 C24 23.98 24 25.96 24 28 C18.06 28 12.12 28 6 28 C6 33.28 6 38.56 6 44 C12.93 44 19.86 44 27 44 C27 45.98 27 47.96 27 50 C18.09 50 9.18 50 0 50 C0 33.5 0 17 0 0 Z " fill="#1A1A1A" transform="translate(350,313)"/>
<path d="M0 0 C11.55 0 23.1 0 35 0 C35 1.98 35 3.96 35 6 C30.05 6 25.1 6 20 6 C20 20.52 20 35.04 20 50 C18.02 50 16.04 50 14 50 C14 35.48 14 20.96 14 6 C9.38 6 4.76 6 0 6 C0 4.02 0 2.04 0 0 Z " fill="#161616" transform="translate(242,313)"/>
<path d="M0 0 C0.92211021 0.03198486 1.84422043 0.06396973 2.79427338 0.09692383 C9.00205417 0.32578399 15.18537219 0.70531607 21.375 1.23046875 C22.18319309 1.29607687 22.99138618 1.36168499 23.82406998 1.42928123 C37.87460583 2.68198737 37.87460583 2.68198737 42.0390625 7.47387695 C42.68617188 8.57562256 43.33328125 9.67736816 44 10.8125 C41.81927901 9.83493542 40.24121265 9.09345722 38.66998291 7.26333618 C31.27921188 0.84243334 10.24500964 2.62394922 0.75 2.1875 C-0.1370525 2.14458832 -1.024105 2.10167664 -1.93803787 2.0574646 C-25.63838508 1.03658637 -43.5228387 3.53956831 -61.46902084 19.88105392 C-74.60738503 32.25503818 -86.22819418 46.36152493 -97 60.8125 C-97.495 59.3275 -97.495 59.3275 -98 57.8125 C-71.0011481 20.87034958 -47.74321199 -1.89527855 0 0 Z " fill="#6BAA99" transform="translate(388,74.1875)"/>
</svg>
